<svg width="20" height="19" viewBox="0 0 20 19" fill="none" xmlns="http://www.w3.org/2000/svg">
<g clip-path="url(#clip0_2054_86)">
<path d="M12.5191 6.98081C13.9103 8.37205 13.9103 10.6277 12.5191 12.0189C11.1278 13.4102 8.87217 13.4102 7.48093 12.0189C6.08969 10.6277 6.08969 8.37205 7.48093 6.98081C8.87217 5.58957 11.1278 5.58957 12.5191 6.98081Z" fill="black"/>
<path d="M14.1562 0H5.84375C2.89703 0 0.5 2.39703 0.5 5.34375V13.6562C0.5 16.603 2.89703 19 5.84375 19H14.1562C17.103 19 19.5 16.603 19.5 13.6562V5.34375C19.5 2.39703 17.103 0 14.1562 0ZM10 14.25C7.38089 14.25 5.25 12.1197 5.25 9.5C5.25 6.88032 7.38089 4.75 10 4.75C12.6191 4.75 14.75 6.88032 14.75 9.5C14.75 12.1197 12.6191 14.25 10 14.25ZM15.3438 4.75C15.0159 4.75 14.75 4.48415 14.75 4.15625C14.75 3.82828 15.0159 3.5625 15.3438 3.5625C15.6716 3.5625 15.9375 3.82828 15.9375 4.15625C15.9375 4.48415 15.6716 4.75 15.3438 4.75Z" fill="black"/>
</g>
<defs>
<clipPath id="clip0_2054_86">
<rect width="19" height="19" fill="white" transform="translate(0.5)"/>
</clipPath>
</defs>
</svg>
