<svg width="20" height="19" viewBox="0 0 20 19" fill="none" xmlns="http://www.w3.org/2000/svg">
<path fill-rule="evenodd" clip-rule="evenodd" d="M19.5 4.01923C19.5 1.80135 17.6994 0 15.4808 0H4.51923C2.30135 0 0.5 1.80135 0.5 4.01923V14.9808C0.5 17.1994 2.30135 19 4.51923 19H15.4808C17.6994 19 19.5 17.1994 19.5 14.9808V4.01923ZM10.7308 8.5299V7.30769H7.80769V16.0769H10.7308V11.875C10.7308 11.0686 11.3859 10.4135 12.1923 10.4135C12.9994 10.4135 13.6538 11.0686 13.6538 11.875V16.0769H16.5769V10.5962C16.5769 8.78129 15.1037 7.30769 13.2885 7.30769C12.7979 7.30738 12.3135 7.41701 11.8709 7.62852C11.4283 7.84002 11.0387 8.14803 10.7308 8.5299ZM6.34615 7.30769H3.42308V16.0769H6.34615V7.30769ZM4.88462 2.92308C5.69138 2.92308 6.34615 3.57785 6.34615 4.38462C6.34615 5.19138 5.69138 5.84615 4.88462 5.84615C4.07785 5.84615 3.42308 5.19138 3.42308 4.38462C3.42308 3.57785 4.07785 2.92308 4.88462 2.92308Z" fill="black"/>
</svg>
