<svg width="1131" height="146" viewBox="0 0 1131 146" fill="none" xmlns="http://www.w3.org/2000/svg">
<path d="M154.798 7.812V144H121.624V62.326L91.1656 144H64.3936L33.7416 62.132V144H0.567612V7.812H39.7556L77.9736 102.096L115.804 7.812H154.798ZM267.118 88.128C267.118 91.232 266.924 94.4653 266.536 97.828H191.458C191.975 104.553 194.109 109.727 197.86 113.348C201.74 116.84 206.46 118.586 212.022 118.586C220.299 118.586 226.054 115.094 229.288 108.11H264.596C262.785 115.223 259.487 121.625 254.702 127.316C250.046 133.007 244.161 137.469 237.048 140.702C229.934 143.935 221.98 145.552 213.186 145.552C202.58 145.552 193.139 143.289 184.862 138.762C176.584 134.235 170.118 127.769 165.462 119.362C160.806 110.955 158.478 101.126 158.478 89.874C158.478 78.622 160.741 68.7927 165.268 60.386C169.924 51.9793 176.39 45.5127 184.668 40.986C192.945 36.4593 202.451 34.196 213.186 34.196C223.662 34.196 232.974 36.3947 241.122 40.792C249.27 45.1893 255.607 51.462 260.134 59.61C264.79 67.758 267.118 77.264 267.118 88.128ZM233.168 79.398C233.168 73.7073 231.228 69.1807 227.348 65.818C223.468 62.4553 218.618 60.774 212.798 60.774C207.236 60.774 202.516 62.3907 198.636 65.624C194.885 68.8573 192.557 73.4487 191.652 79.398H233.168ZM336.998 34.584C349.673 34.584 359.761 38.7227 367.262 47C374.893 55.148 378.708 66.4 378.708 80.756V144H345.728V85.218C345.728 77.9753 343.853 72.3493 340.102 68.34C336.352 64.3307 331.308 62.326 324.97 62.326C318.633 62.326 313.589 64.3307 309.838 68.34C306.088 72.3493 304.212 77.9753 304.212 85.218V144H271.038V35.748H304.212V50.104C307.575 45.3187 312.102 41.568 317.792 38.852C323.483 36.0067 329.885 34.584 336.998 34.584ZM448.515 115.87V144H431.637C419.609 144 410.232 141.09 403.507 135.27C396.782 129.321 393.419 119.685 393.419 106.364V63.296H380.227V35.748H393.419V9.364H426.593V35.748H448.321V63.296H426.593V106.752C426.593 109.985 427.369 112.313 428.921 113.736C430.473 115.159 433.06 115.87 436.681 115.87H448.515ZM502.69 145.552C492.084 145.552 482.514 143.289 473.978 138.762C465.571 134.235 458.91 127.769 453.996 119.362C449.21 110.955 446.818 101.126 446.818 89.874C446.818 78.7513 449.275 68.9867 454.19 60.58C459.104 52.044 465.83 45.5127 474.366 40.986C482.902 36.4593 492.472 34.196 503.078 34.196C513.683 34.196 523.254 36.4593 531.79 40.986C540.326 45.5127 547.051 52.044 551.966 60.58C556.88 68.9867 559.338 78.7513 559.338 89.874C559.338 100.997 556.816 110.826 551.772 119.362C546.857 127.769 540.067 134.235 531.402 138.762C522.866 143.289 513.295 145.552 502.69 145.552ZM502.69 116.84C509.027 116.84 514.394 114.512 518.792 109.856C523.318 105.2 525.582 98.5393 525.582 89.874C525.582 81.2087 523.383 74.548 518.986 69.892C514.718 65.236 509.415 62.908 503.078 62.908C496.611 62.908 491.244 65.236 486.976 69.892C482.708 74.4187 480.574 81.0793 480.574 89.874C480.574 98.5393 482.643 105.2 486.782 109.856C491.05 114.512 496.352 116.84 502.69 116.84ZM596.531 53.79C600.411 47.8407 605.261 43.1847 611.081 39.822C616.901 36.33 623.368 34.584 630.481 34.584V69.698H621.363C613.086 69.698 606.878 71.5087 602.739 75.13C598.6 78.622 596.531 84.83 596.531 93.754V144H563.357V35.748H596.531V53.79ZM748.947 7.812V34.39H693.463V63.102H734.979V88.904H693.463V144H660.289V7.812H748.947ZM785.977 53.79C789.857 47.8407 794.707 43.1847 800.527 39.822C806.347 36.33 812.813 34.584 819.927 34.584V69.698H810.809C802.531 69.698 796.323 71.5087 792.185 75.13C788.046 78.622 785.977 84.83 785.977 93.754V144H752.803V35.748H785.977V53.79ZM924.247 88.128C924.247 91.232 924.053 94.4653 923.665 97.828H848.587C849.104 104.553 851.238 109.727 854.989 113.348C858.869 116.84 863.59 118.586 869.151 118.586C877.428 118.586 883.184 115.094 886.417 108.11H921.725C919.914 115.223 916.616 121.625 911.831 127.316C907.175 133.007 901.29 137.469 894.177 140.702C887.064 143.935 879.11 145.552 870.315 145.552C859.71 145.552 850.268 143.289 841.991 138.762C833.714 134.235 827.247 127.769 822.591 119.362C817.935 110.955 815.607 101.126 815.607 89.874C815.607 78.622 817.87 68.7927 822.397 60.386C827.053 51.9793 833.52 45.5127 841.797 40.986C850.074 36.4593 859.58 34.196 870.315 34.196C880.791 34.196 890.103 36.3947 898.251 40.792C906.399 45.1893 912.736 51.462 917.263 59.61C921.919 67.758 924.247 77.264 924.247 88.128ZM890.297 79.398C890.297 73.7073 888.357 69.1807 884.477 65.818C880.597 62.4553 875.747 60.774 869.927 60.774C864.366 60.774 859.645 62.3907 855.765 65.624C852.014 68.8573 849.686 73.4487 848.781 79.398H890.297ZM972.206 145.552C962.765 145.552 954.358 143.935 946.986 140.702C939.614 137.469 933.794 133.071 929.526 127.51C925.258 121.819 922.865 115.482 922.348 108.498H955.134C955.522 112.249 957.268 115.288 960.372 117.616C963.476 119.944 967.291 121.108 971.818 121.108C975.957 121.108 979.125 120.332 981.324 118.78C983.652 117.099 984.816 114.965 984.816 112.378C984.816 109.274 983.199 107.011 979.966 105.588C976.733 104.036 971.495 102.355 964.252 100.544C956.492 98.7333 950.025 96.858 944.852 94.918C939.679 92.8487 935.217 89.68 931.466 85.412C927.715 81.0147 925.84 75.13 925.84 67.758C925.84 61.55 927.521 55.924 930.884 50.88C934.376 45.7067 939.42 41.6327 946.016 38.658C952.741 35.6833 960.695 34.196 969.878 34.196C983.458 34.196 994.128 37.5587 1001.89 44.284C1009.78 51.0093 1014.3 59.9333 1015.47 71.056H984.816C984.299 67.3053 982.617 64.3307 979.772 62.132C977.056 59.9333 973.435 58.834 968.908 58.834C965.028 58.834 962.053 59.61 959.984 61.162C957.915 62.5847 956.88 64.5893 956.88 67.176C956.88 70.28 958.497 72.608 961.73 74.16C965.093 75.712 970.266 77.264 977.25 78.816C985.269 80.8853 991.8 82.9547 996.844 85.024C1001.89 86.964 1006.29 90.1973 1010.04 94.724C1013.92 99.1213 1015.92 105.071 1016.05 112.572C1016.05 118.909 1014.24 124.6 1010.62 129.644C1007.13 134.559 1002.02 138.439 995.292 141.284C988.696 144.129 981.001 145.552 972.206 145.552ZM1089.31 34.584C1101.72 34.584 1111.68 38.7227 1119.18 47C1126.69 55.148 1130.44 66.4 1130.44 80.756V144H1097.46V85.218C1097.46 77.9753 1095.58 72.3493 1091.83 68.34C1088.08 64.3307 1083.04 62.326 1076.7 62.326C1070.36 62.326 1065.32 64.3307 1061.57 68.34C1057.82 72.3493 1055.94 77.9753 1055.94 85.218V144H1022.77V0.439998H1055.94V50.298C1059.3 45.5127 1063.89 41.6973 1069.71 38.852C1075.53 36.0067 1082.07 34.584 1089.31 34.584Z" fill="white"/>
</svg>
